
<svg width="24" height="22" viewBox="0 0 24 22" fill="none" xmlns="http://www.w3.org/2000/svg">
<path d="M21.3752 0.700012C21.9846 0.700012 22.5002 1.21564 22.5002 1.82501C22.5002 2.48126 21.9846 2.95001 21.3752 2.95001H4.1252C3.04707 2.95001 2.2502 3.79376 2.2502 4.82501V17.575C2.2502 18.6531 3.04707 19.45 4.1252 19.45H19.8752C20.9064 19.45 21.7502 18.6531 21.7502 17.575V9.32501C21.7502 8.29376 20.9064 7.45001 19.8752 7.45001H5.6252C4.96895 7.45001 4.5002 6.98126 4.5002 6.32501C4.5002 5.71564 4.96895 5.20001 5.6252 5.20001H19.8752C22.1252 5.20001 24.0002 7.07501 24.0002 9.32501V17.575C24.0002 19.8719 22.1252 21.7 19.8752 21.7H4.1252C1.82832 21.7 0.000195503 19.8719 0.000195503 17.575V4.82501C0.000195503 2.57501 1.82832 0.700012 4.1252 0.700012H21.3752ZM16.5002 13.45C16.5002 12.6531 17.1564 11.95 18.0002 11.95C18.7971 11.95 19.5002 12.6531 19.5002 13.45C19.5002 14.2938 18.7971 14.95 18.0002 14.95C17.1564 14.95 16.5002 14.2938 16.5002 13.45Z" fill="#33B047"/>
</svg>
