<svg width="12" height="11" viewBox="0 0 12 11" fill="none" xmlns="http://www.w3.org/2000/svg">
<path d="M5.96946 7.51881L5.18746 8.18599C4.38138 8.80605 3.14736 8.77907 2.37957 8.12459C1.61178 7.47011 1.57905 6.41731 2.30511 5.72904L3.08711 5.06186C3.42135 4.77709 3.42174 4.31507 3.08796 4.02991C2.75419 3.74474 2.21265 3.74442 1.87841 4.02918L1.09726 4.69636C-0.365754 5.94456 -0.365754 7.96829 1.09726 9.21649C2.56028 10.4647 4.9323 10.4647 6.39531 9.21649L7.17731 8.55004C7.51109 8.26548 7.51128 7.80394 7.17774 7.51918C6.8442 7.23441 6.30324 7.23425 5.96946 7.51881Z" fill="black"/>
<path d="M6.55336 3.52946L4.13681 5.59118C3.80327 5.87575 3.80327 6.33712 4.13681 6.62168C4.47035 6.90625 5.01112 6.90625 5.34466 6.62168L7.76121 4.55996C8.09475 4.27539 8.09475 3.81402 7.76121 3.52946C7.42767 3.24489 6.8869 3.24489 6.55336 3.52946Z" fill="black"/>
<path d="M10.8031 0.93627C10.1006 0.336792 9.14768 0 8.15407 0C7.16047 0 6.20757 0.336792 5.50505 0.93627L4.72305 1.60272C4.38928 1.88729 4.38909 2.34882 4.72262 2.63359C5.05616 2.91835 5.59713 2.91851 5.9309 2.63395L6.7129 1.96677C7.51899 1.34671 8.753 1.3737 9.52079 2.02817C10.2886 2.68265 10.3213 3.73545 9.59525 4.42373L8.81325 5.09091C8.47901 5.37567 8.47863 5.83769 8.8124 6.12286C9.14617 6.40802 9.68771 6.40835 10.0219 6.12358L10.8031 5.4564C11.5057 4.85703 11.9005 4.04405 11.9005 3.19634C11.9005 2.34862 11.5057 1.53564 10.8031 0.93627Z" fill="black"/>
</svg>
